<?xml version="1.0" encoding="utf-8"?>
<!-- Generator: Adobe Illustrator 27.5.0, SVG Export Plug-In . SVG Version: 6.00 Build 0)  -->
<svg version="1.1" xmlns="http://www.w3.org/2000/svg" xmlns:xlink="http://www.w3.org/1999/xlink" x="0px" y="0px"
	 viewBox="0 0 500 500" style="enable-background:new 0 0 500 500;" xml:space="preserve">
<g id="Background_Complete">
	<g>
		<rect y="382.398" style="fill:#EBEBEB;" width="500" height="0.25"/>
		<rect x="416.779" y="398.494" style="fill:#EBEBEB;" width="18.888" height="0.25"/>
		<rect x="293.054" y="396.75" style="fill:#EBEBEB;" width="29.473" height="0.25"/>
		<rect x="368.667" y="389.208" style="fill:#EBEBEB;" width="47.111" height="0.25"/>
		<rect x="52.459" y="390.888" style="fill:#EBEBEB;" width="10.971" height="0.25"/>
		<rect x="72.333" y="390.888" style="fill:#EBEBEB;" width="38.555" height="0.25"/>
		<rect x="171" y="395.111" style="fill:#EBEBEB;" width="54.147" height="0.25"/>
		<path style="fill:#EBEBEB;" d="M237.014,337.8H43.915c-3.147,0-5.708-2.561-5.708-5.708V60.66c0-3.147,2.561-5.708,5.708-5.708
			h193.099c3.146,0,5.707,2.561,5.707,5.708v271.432C242.721,335.239,240.16,337.8,237.014,337.8z M43.915,55.203
			c-3.01,0-5.458,2.448-5.458,5.458v271.432c0,3.01,2.448,5.458,5.458,5.458h193.099c3.009,0,5.457-2.448,5.457-5.458V60.66
			c0-3.009-2.448-5.458-5.457-5.458H43.915z"/>
		<path style="fill:#EBEBEB;" d="M453.31,337.8H260.212c-3.147,0-5.707-2.561-5.707-5.708V60.66c0-3.147,2.561-5.708,5.707-5.708
			H453.31c3.148,0,5.708,2.561,5.708,5.708v271.432C459.019,335.239,456.458,337.8,453.31,337.8z M260.212,55.203
			c-3.009,0-5.457,2.448-5.457,5.458v271.432c0,3.01,2.448,5.458,5.457,5.458H453.31c3.01,0,5.458-2.448,5.458-5.458V60.66
			c0-3.009-2.448-5.458-5.458-5.458H260.212z"/>
	</g>
	<g>
		<g>
			<g>
				
					<rect x="62.791" y="80.244" transform="matrix(-1 -1.224647e-16 1.224647e-16 -1 200.176 346.886)" style="fill:#E6E6E6;" width="74.594" height="186.397"/>
				
					<rect x="51.994" y="80.244" transform="matrix(-1 -1.224647e-16 1.224647e-16 -1 187.4658 346.886)" style="fill:#F5F5F5;" width="83.478" height="186.397"/>
				
					<rect x="9.144" y="140.314" transform="matrix(-1.836970e-16 1 -1 -1.836970e-16 267.1759 79.7101)" style="fill:#FFFFFF;" width="169.178" height="66.258"/>
			</g>
			<g>
				
					<rect x="154.339" y="80.244" transform="matrix(-1 -1.224647e-16 1.224647e-16 -1 383.2729 346.886)" style="fill:#E6E6E6;" width="74.594" height="186.397"/>
				
					<rect x="143.542" y="80.244" transform="matrix(-1 -1.224647e-16 1.224647e-16 -1 370.5626 346.886)" style="fill:#F5F5F5;" width="83.478" height="186.397"/>
				
					<rect x="100.692" y="140.314" transform="matrix(-1.836970e-16 1 -1 -1.836970e-16 358.7244 -11.8384)" style="fill:#FFFFFF;" width="169.178" height="66.258"/>
			</g>
		</g>
		<g>
			<rect x="218.944" y="309.142" style="fill:#E0E0E0;" width="61.136" height="73.257"/>
			<polygon style="fill:#E0E0E0;" points="280.08,309.142 218.944,309.142 205.181,295.133 266.317,295.133 			"/>
			<polygon style="fill:#F5F5F5;" points="183.16,295.133 122.025,295.133 110.481,309.142 171.616,309.142 			"/>
			
				<rect x="110.481" y="309.142" transform="matrix(-1 -1.224647e-16 1.224647e-16 -1 329.4252 691.5399)" style="fill:#F5F5F5;" width="108.464" height="73.257"/>
			
				<rect x="211.085" y="328.707" transform="matrix(-1 -1.224647e-16 1.224647e-16 -1 430.0293 691.5399)" style="fill:#F0F0F0;" width="7.859" height="34.125"/>
			
				<rect x="147.365" y="321.727" transform="matrix(6.123234e-17 -1 1 6.123234e-17 -174.3618 498.782)" style="fill:#F0F0F0;" width="29.69" height="29.69"/>
			
				<rect x="110.607" y="321.727" transform="matrix(6.123234e-17 -1 1 6.123234e-17 -211.1198 462.024)" style="fill:#F0F0F0;" width="29.69" height="29.69"/>
			
				<rect x="161.002" y="339.615" transform="matrix(6.123234e-17 -1 1 6.123234e-17 -192.25 516.6705)" style="fill:#F0F0F0;" width="2.417" height="29.69"/>
			
				<rect x="124.244" y="339.615" transform="matrix(6.123234e-17 -1 1 6.123234e-17 -229.0079 479.9124)" style="fill:#F0F0F0;" width="2.417" height="29.69"/>
			
				<rect x="161.002" y="346.702" transform="matrix(6.123234e-17 -1 1 6.123234e-17 -199.3365 523.7571)" style="fill:#F0F0F0;" width="2.417" height="29.69"/>
			
				<rect x="124.244" y="346.702" transform="matrix(6.123234e-17 -1 1 6.123234e-17 -236.0945 486.9991)" style="fill:#F0F0F0;" width="2.417" height="29.69"/>
			
				<rect x="161.002" y="353.789" transform="matrix(6.123234e-17 -1 1 6.123234e-17 -206.4232 530.8437)" style="fill:#F0F0F0;" width="2.417" height="29.69"/>
			
				<rect x="124.244" y="353.789" transform="matrix(6.123234e-17 -1 1 6.123234e-17 -243.1812 494.0857)" style="fill:#F0F0F0;" width="2.417" height="29.69"/>
			<rect x="218.944" y="328.707" style="fill:#E6E6E6;" width="17.61" height="34.125"/>
		</g>
		<g>
			<g>
				
					<rect x="303.222" y="217.667" transform="matrix(-1 -1.224647e-16 1.224647e-16 -1 635.8069 600.0666)" style="fill:#E6E6E6;" width="29.363" height="164.733"/>
				<polygon style="fill:#F5F5F5;" points="311.063,382.4 303.222,382.4 303.222,353.927 319.284,353.927 				"/>
				
					<rect x="387.415" y="217.667" transform="matrix(-1 -1.224647e-16 1.224647e-16 -1 804.1934 600.0666)" style="fill:#E6E6E6;" width="29.363" height="164.733"/>
				
					<rect x="303.222" y="217.667" transform="matrix(-1 -1.224647e-16 1.224647e-16 -1 697.4803 590.266)" style="fill:#F5F5F5;" width="91.036" height="154.933"/>
				<polygon style="fill:#F5F5F5;" points="386.418,382.4 394.258,382.4 394.258,353.927 378.197,353.927 				"/>
				
					<rect x="309.304" y="298.512" transform="matrix(-1 -1.224647e-16 1.224647e-16 -1 697.4797 664.6792)" style="fill:#F0F0F0;" width="78.871" height="67.655"/>
				
					<rect x="334.336" y="298.512" transform="matrix(-1 -1.224647e-16 1.224647e-16 -1 722.5115 664.6792)" style="fill:#E6E6E6;" width="53.839" height="67.655"/>
				
					<rect x="309.304" y="224.846" transform="matrix(-1 -1.224647e-16 1.224647e-16 -1 697.4797 517.3458)" style="fill:#F0F0F0;" width="78.871" height="67.655"/>
				
					<rect x="334.336" y="224.846" transform="matrix(-1 -1.224647e-16 1.224647e-16 -1 722.5115 517.3458)" style="fill:#E6E6E6;" width="53.839" height="67.655"/>
			</g>
			<path style="fill:#FFFFFF;" d="M361.256,276.617c0,8.736-7.426,15.884-16.503,15.884h-8.192c-9.076,0-16.502-7.148-16.502-15.884
				H361.256z"/>
			<path style="fill:#FFFFFF;" d="M361.256,265.506c0,8.736-7.426,15.884-16.503,15.884h-8.192c-9.076,0-16.502-7.148-16.502-15.884
				H361.256z"/>
			<path style="fill:#F5F5F5;" d="M353.027,320.333h24.281c0,0-4.216,10.222-4.216,16.238c0,6.015,18.468,29.596-7.925,29.596
				c-26.393,0-7.925-23.581-7.925-29.596C357.242,330.556,353.027,320.333,353.027,320.333z"/>
			<path style="fill:#FFFFFF;" d="M361.256,254.395c0,8.736-7.426,15.884-16.503,15.884h-8.192c-9.076,0-16.502-7.148-16.502-15.884
				H361.256z"/>
			<g>
				<path style="fill:#E6E6E6;" d="M354.04,205.727c-0.924-26.053-1.911-73.835,0.108-86.901l3.293-2.543
					c0,0-0.722,23.923-1.1,63.839c-0.379,39.916-0.849,19.674-0.446,25.605H354.04z"/>
				<path style="fill:#E6E6E6;" d="M346.475,136.458c-7.634-5.508-23.708-9.424-40.349-9.403
					c-6.534,0.008,19.456,6.407,29.977,13.468c8.173,5.485,17.188,14.713,20.124,19.835
					C354.816,149.581,354.109,141.966,346.475,136.458z"/>
				<path style="fill:#E6E6E6;" d="M361.789,150.811c7.014-5.736,22.63-10.147,39.245-10.646c6.523-0.196-18.717,7.002-28.443,14.38
					c-7.555,5.731-15.539,15.224-17.906,20.428C354.907,164.172,354.775,156.548,361.789,150.811z"/>
				<g>
					<path style="fill:#F0F0F0;" d="M355.272,217.667L355.272,217.667c-6.417,0-11.72-5.007-12.089-11.413l-1.069-8.798h26.316
						l-1.069,8.798C366.992,212.66,361.689,217.667,355.272,217.667z"/>
					<polygon style="fill:#F0F0F0;" points="370.134,201.667 340.41,201.667 339.559,193.956 370.985,193.956 					"/>
				</g>
			</g>
		</g>
	</g>
</g>
<g id="Background_Simple" style="display:none;">
	<g style="display:inline;">
		<path style="fill:#407BFF;" d="M192.063,95.15c-75.324,34.899-67.11,69.786-44.259,135.997
			c31.779,92.079,63.571,123.5,158.807,86.242c92.013-35.997,124.705-67.102,80.467-160.796
			C344.748,66.939,283.888,52.606,192.063,95.15z"/>
		<path style="opacity:0.9;fill:#FFFFFF;" d="M192.063,95.15c-75.324,34.899-67.11,69.786-44.259,135.997
			c31.779,92.079,63.571,123.5,158.807,86.242c92.013-35.997,124.705-67.102,80.467-160.796
			C344.748,66.939,283.888,52.606,192.063,95.15z"/>
	</g>
</g>
<g id="Shadow_1_">
	<ellipse id="_x3C_Path_x3E__69_" style="fill:#F5F5F5;" cx="250" cy="416.238" rx="193.889" ry="11.323"/>
</g>
<g id="Character_1_">
	<g>
		<polygon style="fill:#7F3E3B;" points="354.302,397.883 347.113,399.397 342.238,383.039 349.426,381.524 		"/>
		<path style="fill:#263238;" d="M346.659,398.624l7.85-1.654c0.294-0.062,0.591,0.089,0.716,0.362l2.766,6.09
			c0.287,0.631-0.084,1.365-0.765,1.497c-2.842,0.549-6.969,1.245-10.528,1.995c-4.162,0.877-4.737,1.772-9.686,2.399
			c-2.992,0.379-4.206-2.54-2.988-2.973c5.543-1.97,6.793-2.77,11.021-6.791C345.505,399.112,346.039,398.754,346.659,398.624z"/>
		<polygon style="opacity:0.2;" points="342.241,383.043 344.752,391.475 351.944,389.96 349.432,381.527 		"/>
		<path style="fill:#803E3C;" d="M302.221,163.836c-1.472,4.872-3.084,9.614-4.83,14.373c-1.768,4.747-3.636,9.453-5.851,14.204
			l-0.872,1.79l-0.954,1.826c-0.32,0.609-0.695,1.185-1.041,1.776c-0.345,0.592-0.706,1.173-1.102,1.729
			c-1.502,2.279-3.177,4.407-4.975,6.4c-1.789,1.999-3.706,3.86-5.745,5.563c-1.015,0.858-2.065,1.669-3.153,2.438
			c-1.098,0.788-2.142,1.496-3.423,2.23l-3.536-4.708c0.69-0.796,1.526-1.732,2.266-2.631c0.757-0.911,1.476-1.861,2.204-2.789
			c1.432-1.882,2.779-3.806,4.029-5.764c1.233-1.968,2.415-3.945,3.408-5.989c0.519-1.012,0.974-2.043,1.443-3.063l0.659-1.551
			l0.64-1.633c1.693-4.434,3.271-9.101,4.816-13.765l4.679-14.016L302.221,163.836z"/>
		<path style="fill:#407BFF;" d="M307.469,155.911c2.533,6.726-10.915,30.665-10.915,30.665l-15.122-11.659
			c0,0,4.207-10.518,9.389-18.238C296.142,148.753,304.689,148.529,307.469,155.911z"/>
		<path style="opacity:0.2;" d="M304.514,162.56c-4.78,2.03-11.278,9.718-13.301,19.898l5.341,4.122c0,0,7.96-14.16,10.47-23.76
			C306.345,162.28,305.514,162.13,304.514,162.56z"/>
		<path style="fill:#407BFF;" d="M298.542,150.766c0,0-8.872,16.784-0.445,59.059c12.115,0,34.313,0,40.208,0
			c0.277-6.172-3.601-30.364,2.352-59.447c0,0-6.892-1.383-13.46-1.7c-5.138-0.248-12.576-0.411-17.092,0.001
			C304.151,149.223,298.542,150.766,298.542,150.766z"/>
		<polygon style="fill:#7F3E3B;" points="253.807,216.583 257.903,220.281 263.959,218.67 259.846,211.36 		"/>
		<path style="fill:#7F3E3B;" d="M268.723,211.776l-8.877-0.417l4.113,7.31c0,0,6.587,0.697,7.217-4.166L268.723,211.776z"/>
		<path style="fill:#7F3E3B;" d="M325.504,129.433c-1.078,5.5-2.154,15.576,1.694,19.246c0,0-1.731,3.688-11.95,3.688
			c-9.338,0-5.143-3.687-5.143-3.687c6.133-1.465,5.974-6.014,4.906-10.288L325.504,129.433z"/>
		<path style="opacity:0.2;" d="M321.226,133.089l-6.21,5.299c0.256,1.011,0.456,2.037,0.527,3.034
			c1.499,2.329,5.582-1.088,6.332-4.671C322.128,135.546,321.426,133.659,321.226,133.089z"/>
		<path style="fill:#263238;" d="M300.834,117.35c-2.058,3.45,2.454,13.004,7.679,12.128
			C313.738,128.601,304.732,110.816,300.834,117.35z"/>
		<path style="fill:#7F3E3B;" d="M323.026,120.785c1.092,7.38,2.106,11.645-0.784,16.162c-4.347,6.795-14.045,5.358-17.32-1.547
			c-2.948-6.216-4.238-17.241,2.281-21.647C313.626,109.411,321.934,113.405,323.026,120.785z"/>
		<path style="fill:#263238;" d="M323.647,111.06l-6.365,4.638c3.841,4.569-0.525,14.562,5.527,12.289
			C325.583,126.945,332.731,116.096,323.647,111.06z"/>
		<path style="fill:#263238;" d="M316.04,105.374c-9.672,2.34-10.529-0.457-9.877-4.071c-7.234,1.187-12.646,6.89-8.444,13.781
			c4.662,7.646,18.878,1.434,21.389,1.389l3.611-0.88C330.877,113.198,328.078,102.462,316.04,105.374z"/>
		<path style="fill:#FFFFFF;" d="M324.615,124.647c-0.012,0.002-0.024,0.004-0.036,0.004c-1.829-0.034-7.49-0.003-7.547-0.002
			c-0.089,0-0.162-0.071-0.162-0.16c0-0.089,0.072-0.163,0.16-0.162c0.057-0.001,5.721-0.032,7.554,0.002
			c0.089,0.002,0.16,0.075,0.158,0.164C324.741,124.569,324.687,124.632,324.615,124.647z"/>
		<path style="fill:#7F3E3B;" d="M328.013,128.121c-0.68,1.893-2.17,3.296-3.677,3.977c-2.266,1.024-3.774-0.911-3.459-3.246
			c0.284-2.102,1.805-5.167,4.23-5.209C327.498,123.601,328.791,125.956,328.013,128.121z"/>
		<polygon style="fill:#7F3E3B;" points="313.781,407.136 306.435,407.136 306.191,390.123 313.537,390.123 		"/>
		<path style="fill:#263238;" d="M306.144,406.285l8.023,0c0.3,0,0.56,0.209,0.625,0.502l1.451,6.53
			c0.15,0.677-0.364,1.319-1.057,1.307c-2.894-0.049-7.076-0.219-10.713-0.219c-4.253,0-7.926,0.232-12.914,0.232
			c-3.016,0-3.853-3.049-2.591-3.325c5.747-1.257,10.44-1.392,15.406-4.454C304.914,406.525,305.51,406.285,306.144,406.285z"/>
		<polygon style="opacity:0.2;" points="306.192,390.128 306.317,398.897 313.666,398.897 313.542,390.128 		"/>
		<path style="fill:#407BFF;" d="M303.113,407.411c-0.565,0.089-1.109,0.077-1.489-0.152c-0.302-0.182-0.474-0.476-0.51-0.873
			c-0.029-0.296,0.105-0.459,0.222-0.545c0.746-0.549,3.382,0.542,3.68,0.668c0.066,0.029,0.109,0.094,0.109,0.166
			c-0.001,0.07-0.044,0.135-0.11,0.162C304.517,407.044,303.799,407.303,303.113,407.411z M301.767,406.049
			c-0.092,0.015-0.167,0.041-0.221,0.08c-0.043,0.032-0.091,0.086-0.078,0.224c0.026,0.283,0.137,0.48,0.339,0.601
			c0.459,0.278,1.436,0.17,2.657-0.283C303.549,406.318,302.336,405.959,301.767,406.049z"/>
		<path style="fill:#407BFF;" d="M304.973,406.849c-0.029,0.005-0.059,0.002-0.087-0.007c-0.835-0.296-2.577-1.688-2.55-2.542
			c0.004-0.154,0.074-0.431,0.487-0.549c0.27-0.078,0.532-0.04,0.784,0.107c0.974,0.569,1.49,2.684,1.511,2.773
			c0.016,0.064-0.005,0.13-0.054,0.173C305.038,406.829,305.007,406.844,304.973,406.849z M302.999,404.076
			c-0.026,0.004-0.052,0.011-0.079,0.018c-0.224,0.064-0.228,0.173-0.229,0.218c-0.016,0.504,1.125,1.584,1.981,2.043
			c-0.186-0.613-0.62-1.824-1.245-2.189C303.285,404.083,303.144,404.053,302.999,404.076z"/>
		<path style="fill:#263238;" d="M298.097,209.825c0,0-5.397,68.915-6.41,91.832c-1.054,23.837,12.246,95.136,12.246,95.136h11.951
			c0,0-3.939-66.133-1.886-89.467c2.238-25.439,10.53-97.5,10.53-97.5H298.097z"/>
		<path style="opacity:0.2;" d="M310.152,263.96c1.02,11.54,3.96,22.53,5.4,27.43c1.84-18.09,4.54-42.4,6.5-59.77
			C317.452,234.67,308.332,243.38,310.152,263.96z"/>
		<path style="fill:#263238;" d="M311.989,209.825c0,0,3.074,68.685,7.757,90.208c5.129,23.569,20.42,90.258,20.42,90.258
			l13.473-2.839c0,0-9.079-63.228-12.006-86.563c-3.176-25.327-3.699-91.064-3.699-91.064H311.989z"/>
		<polygon style="fill:#407BFF;" points="354.584,387.556 340.07,390.614 337.65,385.404 353.621,381.57 		"/>
		<polygon style="fill:#407BFF;" points="318.19,397.089 303.356,397.089 302.063,391.492 318.445,391.777 		"/>
		<path style="fill:#263238;" d="M312.853,125.062c0.125,0.593-0.087,1.141-0.475,1.222c-0.388,0.082-0.804-0.332-0.929-0.926
			c-0.125-0.593,0.087-1.141,0.475-1.222C312.312,124.054,312.728,124.468,312.853,125.062z"/>
		<path style="fill:#263238;" d="M306.148,126.478c0.125,0.593-0.087,1.14-0.475,1.222c-0.388,0.082-0.804-0.332-0.929-0.926
			c-0.125-0.593,0.087-1.141,0.475-1.223C305.607,125.471,306.022,125.885,306.148,126.478z"/>
		<path style="fill:#630F0F;" d="M307.894,126.418c0,0-0.626,3.708-1.762,5.673c1.257,0.758,2.946-0.067,2.946-0.067
			L307.894,126.418z"/>
		<path style="fill:#263238;" d="M310.497,134.371c-0.097,0.016-0.189-0.049-0.205-0.146c-0.016-0.097,0.049-0.189,0.146-0.205
			c2.624-0.444,3.539-2.484,3.549-2.504c0.04-0.09,0.146-0.132,0.234-0.092c0.09,0.039,0.132,0.144,0.092,0.234
			C314.272,131.749,313.31,133.896,310.497,134.371z"/>
		<path style="fill:#263238;" d="M315.992,119.846c-0.103,0.032-0.219,0.016-0.313-0.052c-1.288-0.93-2.518-0.473-2.53-0.467
			c-0.169,0.073-0.389-0.02-0.461-0.204c-0.071-0.184,0.021-0.39,0.204-0.461c0.065-0.026,1.604-0.6,3.202,0.555
			c0.16,0.115,0.195,0.338,0.08,0.497C316.13,119.78,316.064,119.824,315.992,119.846z"/>
		<path style="fill:#263238;" d="M302.092,122.044c-0.052-0.006-0.104-0.024-0.15-0.055c-0.165-0.106-0.213-0.326-0.105-0.492
			c1.069-1.654,2.712-1.68,2.781-1.681c0.191-0.008,0.356,0.157,0.358,0.355c0.001,0.196-0.157,0.356-0.353,0.358l0,0
			c-0.055,0-1.335,0.034-2.189,1.355C302.357,122.002,302.222,122.06,302.092,122.044z"/>
		<path style="fill:#263238;" d="M334.698,149.019l-1.898-0.165c-0.19-0.016-0.363,0.115-0.398,0.302
			c-5.282,28.368-2.317,58.483-2.317,58.483h2.094c-1.713-31.249,2.264-54.914,2.852-58.196
			C335.069,149.231,334.914,149.038,334.698,149.019z"/>
		<g>
			<path style="fill:#FFFFFF;" d="M332.484,207.64c0-0.372-0.305-0.676-0.676-0.676h-1.45c-0.372,0-0.676,0.304-0.676,0.676
				c0,0.315,0.223,0.57,0.516,0.644v1.796c0,0.486,0.398,0.885,0.885,0.885c0.487,0,0.885-0.398,0.885-0.885v-1.796
				C332.261,208.21,332.484,207.955,332.484,207.64z"/>
		</g>
		<g>
			<path style="fill:#263238;" d="M302.865,149.4l-1.879,0.355c-0.156,0.03-0.277,0.156-0.299,0.314
				c-3.982,28.382,0.384,57.571,0.384,57.571h2.094c-3.127-30.892-0.35-54.163,0.135-57.83
				C303.332,149.561,303.112,149.353,302.865,149.4z"/>
			<path style="fill:#FFFFFF;" d="M303.47,207.64c-0.017-0.372-0.336-0.676-0.707-0.676h-1.45c-0.372,0-0.662,0.304-0.645,0.676
				c0.015,0.315,0.25,0.57,0.546,0.644l0.083,1.796c0.023,0.486,0.439,0.885,0.926,0.885c0.487,0,0.867-0.398,0.844-0.885
				l-0.083-1.796C303.273,208.21,303.485,207.955,303.47,207.64z"/>
		</g>
		<path style="fill:#407BFF;" d="M343.926,400.35c-0.535,0.204-1.069,0.304-1.489,0.159c-0.333-0.116-0.562-0.368-0.679-0.749
			c-0.089-0.283,0.008-0.471,0.105-0.579c0.617-0.691,3.421-0.167,3.738-0.106c0.07,0.015,0.126,0.07,0.14,0.14
			c0.014,0.069-0.015,0.141-0.074,0.182C345.224,399.701,344.575,400.103,343.926,400.35z M342.328,399.295
			c-0.087,0.033-0.155,0.074-0.2,0.124c-0.036,0.041-0.072,0.103-0.03,0.235c0.084,0.272,0.233,0.441,0.456,0.518
			c0.507,0.177,1.441-0.13,2.541-0.825C344.127,399.191,342.866,399.09,342.328,399.295z"/>
		<path style="fill:#407BFF;" d="M345.63,399.417c-0.027,0.01-0.057,0.014-0.087,0.011c-0.878-0.118-2.87-1.121-3.02-1.961
			c-0.027-0.152-0.016-0.437,0.363-0.637c0.248-0.132,0.512-0.149,0.79-0.057c1.07,0.355,2.012,2.319,2.051,2.402
			c0.028,0.059,0.021,0.129-0.017,0.181C345.69,399.384,345.662,399.405,345.63,399.417z M343.127,397.11
			c-0.025,0.009-0.048,0.021-0.074,0.034c-0.206,0.109-0.187,0.216-0.179,0.26c0.088,0.496,1.427,1.318,2.359,1.591
			c-0.308-0.561-0.983-1.657-1.669-1.885C343.408,397.058,343.264,397.058,343.127,397.11z"/>
		<path style="fill:#FFFFFF;" d="M313.92,130.069c-2.37,0.501-4.805-1.495-5.429-4.449c-0.555-2.625,0.666-4.392,3.438-4.978
			c2.771-0.585,4.603,0.538,5.157,3.162C317.709,126.757,316.289,129.568,313.92,130.069z M311.995,120.957
			c-1.817,0.384-3.845,1.493-3.189,4.596c0.587,2.78,2.852,4.665,5.047,4.201s3.504-3.103,2.917-5.883
			C316.114,120.767,313.811,120.573,311.995,120.957z"/>
		<path style="fill:#FFFFFF;" d="M304.211,132.12c-1.991,0.421-4.119-1.64-4.743-4.594c-0.748-3.541,1.403-4.548,2.751-4.833
			c1.349-0.285,3.723-0.234,4.471,3.307C307.314,128.954,306.202,131.699,304.211,132.12z M302.286,123.008
			c-1.504,0.318-3.158,1.348-2.503,4.451c0.587,2.78,2.544,4.73,4.361,4.346c1.817-0.384,2.818-2.958,2.23-5.738
			C305.719,122.963,303.789,122.69,302.286,123.008z"/>
		<path style="fill:#FFFFFF;" d="M308.637,123.778c-0.025,0.005-0.051,0.004-0.077-0.003c-1.019-0.292-1.875-0.112-2.616,0.55
			c-0.067,0.06-0.168,0.053-0.227-0.012c-0.059-0.067-0.054-0.168,0.013-0.228c0.818-0.732,1.8-0.94,2.92-0.62
			c0.086,0.024,0.135,0.114,0.111,0.199C308.742,123.724,308.694,123.766,308.637,123.778z"/>
		<polygon style="fill:#263238;" points="315.865,152.362 317.331,151.298 320.456,154.305 		"/>
		<path style="fill:#FFFFFF;" d="M317.331,151.298c0,0,2.583,3.611,3.083,6.222c3.083-1.278,8.909-4.48,9.687-9
			c-1.194-0.242-3.187-1.5-3.187-1.5S323.803,149.659,317.331,151.298z"/>
		<polygon style="fill:#263238;" points="315.865,152.362 315.26,151.135 311.22,154.305 		"/>
		<path style="fill:#FFFFFF;" d="M315.26,151.135c0,0-2.603,2.343-2.971,5.753c-3.083-1.278-4.292-5.451-3.486-8.229
			c1.684-0.802,3.653-1.198,3.653-1.198S312.137,150.159,315.26,151.135z"/>
		<polygon style="fill:#7F3E3B;" points="310.377,214.188 315.612,219.702 320.848,217.236 316.417,208.964 		"/>
		<path style="fill:#7F3E3B;" d="M325.293,209.38l-8.877-0.417l4.431,8.273c0,0,6.268-0.265,6.898-5.128L325.293,209.38z"/>
		<path style="fill:#803E3C;" d="M348.039,160.732c1.31,5.433,2.47,10.86,3.508,16.347c0.525,2.739,1.017,5.492,1.466,8.263
			c0.467,2.772,0.878,5.548,1.218,8.446c0.027,0.237,0.135,1.048,0.132,1.646c0.013,0.638-0.027,1.284-0.125,1.907
			c-0.186,1.254-0.572,2.431-1.073,3.452c-1.01,2.055-2.34,3.538-3.657,4.759c-2.66,2.419-5.451,3.872-8.197,5.164
			c-5.554,2.472-11.064,3.914-16.86,4.844l-1.47-5.702c2.399-1.014,4.924-2.103,7.285-3.29c2.381-1.172,4.704-2.407,6.828-3.767
			c2.124-1.324,4.081-2.852,5.379-4.327c0.641-0.73,1.065-1.453,1.193-1.932c0.065-0.241,0.08-0.406,0.065-0.527
			c-0.001-0.062-0.017-0.112-0.035-0.165c-0.02-0.095-0.014,0.028-0.098-0.418c-1.063-5.184-2.369-10.589-3.582-15.936
			c-1.239-5.358-2.445-10.757-3.571-16.135L348.039,160.732z"/>
		<path style="fill:#407BFF;" d="M340.657,150.379c9.978,1.796,14.426,26.809,14.426,26.809l-16.061,9.86
			c0,0-5.114-14.762-4.842-24.048C334.441,154.139,333.07,149.013,340.657,150.379z"/>
	</g>
</g>
<g id="Server">
	<g>
		<g>
			<rect x="169.898" y="222.374" style="fill:#407BFF;" width="102.974" height="193.864"/>
			<g>
				<rect x="179.374" y="220.005" style="fill:#407BFF;" width="112.605" height="2.369"/>
				<rect x="179.374" y="220.005" style="opacity:0.3;" width="112.605" height="2.369"/>
			</g>
			<g>
				
					<rect x="272.873" y="222.374" transform="matrix(-1 -1.224647e-16 1.224647e-16 -1 574.3267 638.6122)" style="fill:#407BFF;" width="28.581" height="193.864"/>
				
					<rect x="272.873" y="222.374" transform="matrix(-1 -1.224647e-16 1.224647e-16 -1 574.3267 638.6122)" style="opacity:0.2;" width="28.581" height="193.864"/>
			</g>
			<path style="opacity:0.1;" d="M264.556,239.279h-5.76c-0.51,0-0.928-0.417-0.928-0.928v-5.803c0-0.51,0.418-0.928,0.928-0.928
				h5.76c0.51,0,0.928,0.417,0.928,0.928v5.803C265.483,238.861,265.066,239.279,264.556,239.279z"/>
			<path style="opacity:0.3;" d="M248.84,239.279h-5.76c-0.51,0-0.928-0.417-0.928-0.928v-5.803c0-0.51,0.417-0.928,0.928-0.928
				h5.76c0.51,0,0.928,0.417,0.928,0.928v5.803C249.768,238.861,249.351,239.279,248.84,239.279z"/>
			<path style="opacity:0.3;" d="M233.125,239.279h-5.76c-0.51,0-0.928-0.417-0.928-0.928v-5.803c0-0.51,0.418-0.928,0.928-0.928
				h5.76c0.51,0,0.928,0.417,0.928,0.928v5.803C234.053,238.861,233.636,239.279,233.125,239.279z"/>
			<path style="opacity:0.1;" d="M217.41,239.279h-5.76c-0.51,0-0.928-0.417-0.928-0.928v-5.803c0-0.51,0.417-0.928,0.928-0.928
				h5.76c0.51,0,0.928,0.417,0.928,0.928v5.803C218.338,238.861,217.921,239.279,217.41,239.279z"/>
			<path style="opacity:0.3;" d="M201.695,239.279h-5.76c-0.51,0-0.928-0.417-0.928-0.928v-5.803c0-0.51,0.418-0.928,0.928-0.928
				h5.76c0.51,0,0.928,0.417,0.928,0.928v5.803C202.623,238.861,202.206,239.279,201.695,239.279z"/>
			<path style="opacity:0.3;" d="M185.98,239.279h-5.76c-0.51,0-0.928-0.417-0.928-0.928v-5.803c0-0.51,0.418-0.928,0.928-0.928
				h5.76c0.51,0,0.928,0.417,0.928,0.928v5.803C186.908,238.861,186.49,239.279,185.98,239.279z"/>
			<g>
				<g style="opacity:0.1;">
					<rect x="173.261" y="243.67" width="96.249" height="30.351"/>
				</g>
				<path style="fill:#407BFF;" d="M264.06,269.686h-2.703c-0.717,0-1.304-0.587-1.304-1.303v-19.073
					c0-0.717,0.587-1.304,1.304-1.304h2.703c0.717,0,1.304,0.587,1.304,1.304v19.073
					C265.363,269.099,264.777,269.686,264.06,269.686z"/>
				<path style="opacity:0.1;" d="M253.102,269.686h-2.703c-0.717,0-1.303-0.587-1.303-1.303v-19.073
					c0-0.717,0.587-1.304,1.303-1.304h2.703c0.717,0,1.303,0.587,1.303,1.304v19.073
					C254.406,269.099,253.819,269.686,253.102,269.686z"/>
				<path style="fill:#407BFF;" d="M242.145,269.686h-2.703c-0.717,0-1.304-0.587-1.304-1.303v-19.073
					c0-0.717,0.587-1.304,1.304-1.304h2.703c0.717,0,1.304,0.587,1.304,1.304v19.073
					C243.449,269.099,242.862,269.686,242.145,269.686z"/>
				<path style="fill:#407BFF;" d="M231.188,269.686h-2.703c-0.717,0-1.303-0.587-1.303-1.303v-19.073
					c0-0.717,0.587-1.304,1.303-1.304h2.703c0.717,0,1.303,0.587,1.303,1.304v19.073
					C232.491,269.099,231.905,269.686,231.188,269.686z"/>
				<g>
					<path style="opacity:0.3;fill:#FFFFFF;" d="M200.83,254.006c0-1.934,1.568-3.503,3.503-3.503s3.503,1.568,3.503,3.503
						s-1.568,3.503-3.503,3.503S200.83,255.94,200.83,254.006z"/>
					<path style="opacity:0.1;" d="M217.843,263.685c0,1.934-1.568,3.503-3.503,3.503c-1.934,0-3.502-1.568-3.502-3.503
						c0-1.934,1.568-3.503,3.502-3.503C216.275,260.183,217.843,261.751,217.843,263.685z"/>
				</g>
				<g>
					<path style="opacity:0.1;" d="M210.838,254.006c0-1.934,1.568-3.503,3.502-3.503c1.934,0,3.503,1.568,3.503,3.503
						s-1.568,3.503-3.503,3.503C212.406,257.508,210.838,255.94,210.838,254.006z"/>
					<path style="opacity:0.1;" d="M207.835,263.685c0,1.934-1.568,3.503-3.503,3.503s-3.503-1.568-3.503-3.503
						c0-1.934,1.568-3.503,3.503-3.503S207.835,261.751,207.835,263.685z"/>
				</g>
				
					<ellipse transform="matrix(0.7071 -0.7071 0.7071 0.7071 -128.2958 207.958)" style="opacity:0.3;fill:#FFFFFF;" cx="186.88" cy="258.846" rx="7.588" ry="7.588"/>
			</g>
			<g>
				<g style="opacity:0.1;">
					<rect x="173.261" y="278.184" width="96.249" height="30.351"/>
				</g>
				<path style="fill:#407BFF;" d="M264.06,304.199h-2.703c-0.717,0-1.304-0.587-1.304-1.304v-19.073
					c0-0.717,0.587-1.303,1.304-1.303h2.703c0.717,0,1.304,0.587,1.304,1.303v19.073
					C265.363,303.613,264.777,304.199,264.06,304.199z"/>
				<path style="opacity:0.1;" d="M253.102,304.199h-2.703c-0.717,0-1.303-0.587-1.303-1.304v-19.073
					c0-0.717,0.587-1.303,1.303-1.303h2.703c0.717,0,1.303,0.587,1.303,1.303v19.073
					C254.406,303.613,253.819,304.199,253.102,304.199z"/>
				<path style="fill:#407BFF;" d="M242.145,304.199h-2.703c-0.717,0-1.304-0.587-1.304-1.304v-19.073
					c0-0.717,0.587-1.303,1.304-1.303h2.703c0.717,0,1.304,0.587,1.304,1.303v19.073
					C243.449,303.613,242.862,304.199,242.145,304.199z"/>
				<path style="fill:#407BFF;" d="M231.188,304.199h-2.703c-0.717,0-1.303-0.587-1.303-1.304v-19.073
					c0-0.717,0.587-1.303,1.303-1.303h2.703c0.717,0,1.303,0.587,1.303,1.303v19.073
					C232.491,303.613,231.905,304.199,231.188,304.199z"/>
				<g>
					<path style="opacity:0.3;fill:#FFFFFF;" d="M200.83,288.519c0-1.934,1.568-3.502,3.503-3.502s3.503,1.568,3.503,3.502
						c0,1.934-1.568,3.503-3.503,3.503S200.83,290.454,200.83,288.519z"/>
					<circle style="opacity:0.3;fill:#FFFFFF;" cx="214.34" cy="298.199" r="3.503"/>
				</g>
				<g>
					<path style="opacity:0.1;" d="M210.838,288.519c0-1.934,1.568-3.502,3.502-3.502c1.934,0,3.503,1.568,3.503,3.502
						c0,1.934-1.568,3.503-3.503,3.503C212.406,292.022,210.838,290.454,210.838,288.519z"/>
					<circle style="opacity:0.1;" cx="204.332" cy="298.199" r="3.503"/>
				</g>
				<circle style="opacity:0.3;fill:#FFFFFF;" cx="186.88" cy="293.359" r="7.588"/>
			</g>
			<g>
				<g style="opacity:0.1;">
					<rect x="173.261" y="312.698" width="96.249" height="30.35"/>
				</g>
				<path style="fill:#407BFF;" d="M264.06,338.713h-2.703c-0.717,0-1.304-0.587-1.304-1.304v-19.073
					c0-0.717,0.587-1.303,1.304-1.303h2.703c0.717,0,1.304,0.587,1.304,1.303v19.073
					C265.363,338.126,264.777,338.713,264.06,338.713z"/>
				<path style="opacity:0.1;" d="M253.102,338.713h-2.703c-0.717,0-1.303-0.587-1.303-1.304v-19.073
					c0-0.717,0.587-1.303,1.303-1.303h2.703c0.717,0,1.303,0.587,1.303,1.303v19.073
					C254.406,338.126,253.819,338.713,253.102,338.713z"/>
				<path style="fill:#407BFF;" d="M242.145,338.713h-2.703c-0.717,0-1.304-0.587-1.304-1.304v-19.073
					c0-0.717,0.587-1.303,1.304-1.303h2.703c0.717,0,1.304,0.587,1.304,1.303v19.073
					C243.449,338.126,242.862,338.713,242.145,338.713z"/>
				<path style="fill:#407BFF;" d="M231.188,338.713h-2.703c-0.717,0-1.303-0.587-1.303-1.304v-19.073
					c0-0.717,0.587-1.303,1.303-1.303h2.703c0.717,0,1.303,0.587,1.303,1.303v19.073
					C232.491,338.126,231.905,338.713,231.188,338.713z"/>
				<g>
					<path style="opacity:0.3;fill:#FFFFFF;" d="M200.83,323.033c0-1.934,1.568-3.503,3.503-3.503s3.503,1.568,3.503,3.503
						s-1.568,3.503-3.503,3.503S200.83,324.967,200.83,323.033z"/>
					<circle style="opacity:0.3;fill:#FFFFFF;" cx="214.34" cy="332.712" r="3.503"/>
				</g>
				<g>
					<path style="opacity:0.1;" d="M210.838,323.033c0-1.934,1.568-3.503,3.502-3.503c1.934,0,3.503,1.568,3.503,3.503
						s-1.568,3.503-3.503,3.503C212.406,326.535,210.838,324.967,210.838,323.033z"/>
					<circle style="opacity:0.1;" cx="204.332" cy="332.712" r="3.503"/>
				</g>
				<circle style="opacity:0.1;" cx="186.88" cy="327.873" r="7.588"/>
			</g>
			<g>
				<g style="opacity:0.1;">
					<rect x="173.261" y="347.211" width="96.249" height="30.35"/>
				</g>
				<path style="fill:#407BFF;" d="M264.06,373.226h-2.703c-0.717,0-1.304-0.587-1.304-1.304V352.85
					c0-0.717,0.587-1.304,1.304-1.304h2.703c0.717,0,1.304,0.587,1.304,1.304v19.073C265.363,372.64,264.777,373.226,264.06,373.226
					z"/>
				<path style="opacity:0.1;" d="M253.102,373.226h-2.703c-0.717,0-1.303-0.587-1.303-1.304V352.85
					c0-0.717,0.587-1.304,1.303-1.304h2.703c0.717,0,1.303,0.587,1.303,1.304v19.073
					C254.406,372.64,253.819,373.226,253.102,373.226z"/>
				<path style="fill:#407BFF;" d="M242.145,373.226h-2.703c-0.717,0-1.304-0.587-1.304-1.304V352.85
					c0-0.717,0.587-1.304,1.304-1.304h2.703c0.717,0,1.304,0.587,1.304,1.304v19.073
					C243.449,372.64,242.862,373.226,242.145,373.226z"/>
				<path style="fill:#407BFF;" d="M231.188,373.226h-2.703c-0.717,0-1.303-0.587-1.303-1.304V352.85
					c0-0.717,0.587-1.304,1.303-1.304h2.703c0.717,0,1.303,0.587,1.303,1.304v19.073
					C232.491,372.64,231.905,373.226,231.188,373.226z"/>
				<g>
					<circle style="opacity:0.3;fill:#FFFFFF;" cx="204.332" cy="357.546" r="3.503"/>
					<circle style="opacity:0.3;fill:#FFFFFF;" cx="214.34" cy="367.226" r="3.503"/>
				</g>
				<g>
					<circle style="opacity:0.3;fill:#FFFFFF;" cx="214.34" cy="357.546" r="3.503"/>
					<circle style="opacity:0.1;" cx="204.332" cy="367.226" r="3.503"/>
				</g>
				<circle style="opacity:0.3;fill:#FFFFFF;" cx="186.88" cy="362.386" r="7.588"/>
			</g>
			<g>
				<g style="opacity:0.1;">
					<rect x="173.261" y="381.724" width="96.249" height="30.35"/>
				</g>
				<path style="fill:#407BFF;" d="M264.06,407.74h-2.703c-0.717,0-1.304-0.587-1.304-1.304v-19.073
					c0-0.717,0.587-1.304,1.304-1.304h2.703c0.717,0,1.304,0.587,1.304,1.304v19.073C265.363,407.153,264.777,407.74,264.06,407.74z
					"/>
				<path style="opacity:0.1;" d="M253.102,407.74h-2.703c-0.717,0-1.303-0.587-1.303-1.304v-19.073
					c0-0.717,0.587-1.304,1.303-1.304h2.703c0.717,0,1.303,0.587,1.303,1.304v19.073C254.406,407.153,253.819,407.74,253.102,407.74
					z"/>
				<path style="fill:#407BFF;" d="M242.145,407.74h-2.703c-0.717,0-1.304-0.587-1.304-1.304v-19.073
					c0-0.717,0.587-1.304,1.304-1.304h2.703c0.717,0,1.304,0.587,1.304,1.304v19.073C243.449,407.153,242.862,407.74,242.145,407.74
					z"/>
				<path style="fill:#407BFF;" d="M231.188,407.74h-2.703c-0.717,0-1.303-0.587-1.303-1.304v-19.073
					c0-0.717,0.587-1.304,1.303-1.304h2.703c0.717,0,1.303,0.587,1.303,1.304v19.073C232.491,407.153,231.905,407.74,231.188,407.74
					z"/>
				<g>
					<circle style="opacity:0.3;fill:#FFFFFF;" cx="204.332" cy="392.06" r="3.503"/>
					<circle style="opacity:0.3;fill:#FFFFFF;" cx="214.34" cy="401.74" r="3.503"/>
				</g>
				<g>
					<circle style="opacity:0.3;fill:#FFFFFF;" cx="214.34" cy="392.06" r="3.503"/>
					<circle style="opacity:0.1;" cx="204.332" cy="401.74" r="3.503"/>
				</g>
				<circle style="opacity:0.3;fill:#FFFFFF;" cx="186.88" cy="396.9" r="7.588"/>
			</g>
		</g>
		<g>
			<polygon style="fill:#407BFF;" points="172.763,175.087 247.064,175.087 257.511,217.652 183.21,217.652 			"/>
			<polygon style="fill:#407BFF;" points="204.21,217.652 204.502,220.005 283.879,220.005 283.588,217.652 			"/>
			<g>
				<polygon style="fill:#407BFF;" points="244.845,175.087 255.292,217.652 255.296,217.652 255.587,220.005 183.502,220.005 
					183.21,217.652 172.763,175.087 				"/>
				<polygon style="opacity:0.6;fill:#FFFFFF;" points="244.845,175.087 255.292,217.652 255.296,217.652 255.587,220.005 
					183.502,220.005 183.21,217.652 172.763,175.087 				"/>
			</g>
		</g>
		<g>
			<path style="opacity:0.3;fill:#407BFF;" d="M214.896,149.914l-0.465-0.244c-0.597-0.313-14.633-7.78-16.616-17.592
				c-1.914-9.473-1.482-18.677-1.464-19.065l0.044-0.881l0.879-0.067c0.105-0.008,10.568-0.822,17.318-2.974l0.304-0.097
				l0.304,0.097c6.753,2.153,17.213,2.966,17.318,2.974l0.879,0.067l0.044,0.881c0.019,0.387,0.45,9.592-1.465,19.065
				c-1.983,9.812-16.018,17.279-16.615,17.592L214.896,149.914z M198.32,113.984c-0.058,2.522-0.075,10.123,1.455,17.698
				c1.605,7.942,12.699,14.594,15.12,15.961c2.421-1.367,13.514-8.019,15.119-15.961c1.531-7.575,1.514-15.176,1.456-17.697
				c-2.681-0.243-10.724-1.085-16.575-2.892C209.043,112.899,201,113.741,198.32,113.984z"/>
			<path style="fill:#407BFF;" d="M214.895,144.353c-4.187-2.56-11.243-7.863-12.329-13.235c-1.127-5.578-1.383-11.158-1.415-14.561
				c3.547-0.4,9.138-1.18,13.744-2.494c4.606,1.314,10.194,2.094,13.742,2.494c-0.035,3.41-0.29,9.003-1.413,14.561
				C226.139,136.489,219.082,141.793,214.895,144.353z"/>
		</g>
		<path style="opacity:0.3;fill:#407BFF;" d="M143.911,416.238h-2V182.555c0-11.965,9.734-21.7,21.699-21.7h44.595
			c3.137,0,5.689-2.552,5.689-5.689h2c0,4.24-3.449,7.689-7.689,7.689h-44.595c-10.862,0-19.699,8.837-19.699,19.7V416.238z"/>
	</g>
</g>
</svg>
